# File produced by Open Asset Import Library (http://www.assimp.sf.net)
# (assimp v4.1.3154142419)

mtllib base.mtl

# 66 vertex positions
v  5.21540641784668e-08 2.114102244377136e-07 0.01999999582767487
v  0.1500001847743988 -5.011679604649544e-08 0.01999993622303009
v  0.1471178531646729 0.0292637050151825 0.02000001072883606
v  0.1500000655651093 1.789303496479988e-07 -2.980232238769531e-08
v  -2.235174179077148e-08 1.313164830207825e-07 -3.725290298461914e-08
v  0.1471178531646729 0.02926376648247242 1.490116119384766e-08
v  0.1385820209980011 0.05740267783403397 0.02000004053115845
v  0.1385820806026459 0.057402603328228 -5.960464477539062e-08
v  0.1247205138206482 0.08333572000265121 0.01999996602535248
v  0.1247205287218094 0.08333569020032883 0
v  0.1060659736394882 0.1060663089156151 0.01999995857477188
v  0.1060660183429718 0.1060662120580673 -7.450580596923828e-08
v  0.08333553373813629 0.1247205883264542 0.01999996602535248
v  0.08333559334278107 0.1247205510735512 -7.450580596923828e-09
v  0.05740251764655113 0.1385821104049683 0.01999995857477188
v  0.05740243941545486 0.1385820209980011 -6.705522537231445e-08
v  0.02926354110240936 0.14711794257164 0.0199999138712883
v  0.02926352247595787 0.1471178233623505 -7.450580596923828e-09
v  -2.235174179077148e-08 0.150000125169754 0.02000001817941666
v  -2.980232238769531e-08 0.150000274181366 -5.960464477539062e-08
v  -0.02926358580589294 0.1471179127693176 0.02000001817941666
v  -0.02926356345415115 0.1471178829669952 -1.490116119384766e-08
v  -0.05740248411893845 0.1385820508003235 0.01999989897012711
v  -0.05740248411893845 0.1385819613933563 2.980232238769531e-08
v  -0.08333554118871689 0.1247205510735512 0.02000000141561031
v  -0.08333558589220047 0.1247205957770348 -2.421438694000244e-08
v  -0.106066107749939 0.1060661897063255 0.02000008709728718
v  -0.106066070497036 0.1060662120580673 -7.171183824539185e-08
v  -0.124720573425293 0.08333580940961838 0.01999997906386852
v  -0.124720461666584 0.08333581686019897 -7.450580596923828e-08
v  -0.1385819315910339 0.05740272998809814 0.01999989151954651
v  -0.1385819911956787 0.05740255862474442 -3.166496753692627e-08
v  -0.1471179723739624 0.02926366589963436 0.01999985612928867
v  -0.1471178233623505 0.02926370874047279 -9.126961231231689e-08
v  -0.1500000953674316 1.434236764907837e-07 0.01999992690980434
v  -0.1500000357627869 1.080334186553955e-07 -2.980232238769531e-08
v  -0.1471179723739624 -0.02926340140402317 0.01999996788799763
v  -0.1471178084611893 -0.02926336415112019 -3.352761268615723e-08
v  -0.1385819762945175 -0.05740239098668098 0.01999998465180397
v  -0.1385819911956787 -0.05740242451429367 -1.192092895507812e-07
v  -0.124720610678196 -0.08333563059568405 0.01999993436038494
v  -0.1247204840183258 -0.08333546668291092 -9.778887033462524e-08
v  -0.10606599599123 -0.1060659810900688 0.02000001445412636
v  -0.1060660630464554 -0.1060658842325211 -3.166496753692627e-08
v  -0.08333558589220047 -0.124720387160778 0.01999997347593307
v  -0.08333546668291092 -0.1247205212712288 -4.842877388000488e-08
v  -0.05740245431661606 -0.1385819315910339 0.01999997347593307
v  -0.05740247666835785 -0.1385819017887115 -7.450580596923828e-08
v  -0.02926354110240936 -0.1471178829669952 0.02000001072883606
v  -0.02926353737711906 -0.1471177041530609 -2.235174179077148e-08
v  1.043081283569336e-07 -0.1500000655651093 0.02000005543231964
v  3.352761268615723e-08 -0.1500000357627869 -1.490116119384766e-08
v  0.02926361933350563 -0.1471178829669952 0.02000000327825546
v  0.02926364541053772 -0.1471178531646729 7.450580596923828e-09
v  0.05740256980061531 -0.1385819613933563 0.01999998837709427
v  0.057402603328228 -0.1385819315910339 -4.470348358154297e-08
v  0.08333557844161987 -0.1247203052043915 0.01999993622303009
v  0.08333557844161987 -0.1247203573584557 -4.470348358154297e-08
v  0.1060660853981972 -0.1060658693313599 0.02000001072883606
v  0.1060662269592285 -0.1060659140348434 -7.450580596923828e-08
v  0.1247205883264542 -0.08333558589220047 0.02000008523464203
v  0.1247204914689064 -0.08333557099103928 -4.470348358154297e-08
v  0.1385819613933563 -0.05740256980061531 0.01999995112419128
v  0.1385819911956787 -0.05740239471197128 -1.490116119384766e-08
v  0.1471178531646729 -0.02926367148756981 0.02000001072883606
v  0.1471180468797684 -0.02926366589963436 1.490116119384766e-08

# 0 UV coordinates

# 125 vertex normals
vn 1.490116119384766e-08 -1.028180122375488e-06 0.9999998807907104
vn 9.685754776000977e-08 4.060566425323486e-07 -1
vn 0.9951845407485962 0.09801945090293884 -3.695487976074219e-06
vn 0.9951847791671753 0.09801692515611649 1.788139343261719e-07
vn -3.725290298461914e-08 -4.544854164123535e-07 1
vn 5.811452865600586e-07 -2.045184373855591e-06 -1
vn 0.9569405317306519 0.2902839481830597 7.152557373046875e-07
vn 0.9569410085678101 0.2902826964855194 2.741813659667969e-06
vn -7.7858567237854e-07 1.311302185058594e-06 0.9999998807907104
vn -9.238719940185547e-07 1.773238182067871e-06 -0.9999999403953552
vn 0.8819212913513184 0.4713968336582184 2.562999725341797e-06
vn 0.8819200396537781 0.4713992178440094 -1.40070915222168e-06
vn 5.960464477539062e-08 0 0.9999999403953552
vn 1.609325408935547e-06 -1.944601535797119e-06 -1
vn 0.7730103135108948 0.6343934535980225 -1.639127731323242e-06
vn 0.7730093002319336 0.6343948245048523 -4.32133674621582e-06
vn -1.65402889251709e-06 1.14738941192627e-06 -1.00000011920929
vn 0.6343916654586792 0.7730119824409485 -5.692243576049805e-06
vn 0.6343937516212463 0.7730100154876709 -1.430511474609375e-06
vn -1.676380634307861e-07 1.862645149230957e-07 0.9999999403953552
vn 2.130866050720215e-06 -1.419335603713989e-06 -1
vn 0.4713952839374542 0.8819220066070557 -2.235174179077148e-06
vn 0.4713964462280273 0.8819214105606079 -8.940696716308594e-08
vn -1.359730958938599e-06 7.82310962677002e-07 0.9999998807907104
vn -2.86102294921875e-06 7.82310962677002e-07 -1.00000011920929
vn 0.2902859449386597 0.9569398164749146 5.513429641723633e-07
vn 0.2902836799621582 0.9569406509399414 -2.816319465637207e-06
vn 2.998858690261841e-06 -1.937150955200195e-07 0.9999998807907104
vn 2.10106372833252e-06 -2.570450305938721e-07 -1.00000011920929
vn 0.09801524877548218 0.9951850175857544 -2.976506948471069e-06
vn 0.09802168607711792 0.9951841831207275 6.582587957382202e-06
vn 7.152557373046875e-07 -1.043081283569336e-07 0.9999998211860657
vn -2.034008502960205e-06 -3.129243850708008e-07 -1
vn -0.09801763296127319 0.9951846599578857 6.813555955886841e-06
vn -0.09802238643169403 0.9951841235160828 -1.527369022369385e-07
vn -3.822147846221924e-06 -1.095235347747803e-06 1
vn -1.572072505950928e-06 -1.415610313415527e-07 -1
vn -0.2902839183807373 0.9569404125213623 -4.172325134277344e-07
vn -0.290286511182785 0.9569397568702698 -4.32133674621582e-06
vn 2.831220626831055e-06 1.71363353729248e-06 1
vn 1.624226570129395e-06 1.214444637298584e-06 -0.9999999403953552
vn -0.4713959097862244 0.8819217681884766 -3.904104232788086e-06
vn -0.4713919162750244 0.8819238543510437 2.622604370117188e-06
vn 2.00420618057251e-06 1.11013650894165e-06 1
vn 1.564621925354004e-06 1.221895217895508e-06 -0.9999999403953552
vn -0.6343909502029419 0.7730123400688171 2.652406692504883e-06
vn -0.6343933343887329 0.7730104923248291 -1.728534698486328e-06
vn -1.795589923858643e-06 -2.712011337280273e-06 0.9999998807907104
vn 2.60770320892334e-07 -2.868473529815674e-07 -1
vn -0.7730087637901306 0.6343952417373657 -1.40070915222168e-06
vn -0.7730097770690918 0.6343939304351807 -3.874301910400391e-06
vn -1.311302185058594e-06 -1.81049108505249e-06 1
vn -5.885958671569824e-07 -1.437962055206299e-06 -0.9999998807907104
vn -0.881923496723175 0.4713922142982483 -4.291534423828125e-06
vn -0.881922721862793 0.4713940620422363 -1.311302185058594e-06
vn -1.240521669387817e-06 -1.706182956695557e-06 0.9999998807907104
vn 7.674098014831543e-07 1.884996891021729e-06 -0.9999998807907104
vn -0.9569391012191772 0.2902886271476746 5.364418029785156e-07
vn -0.9569404125213623 0.2902843654155731 -6.020069122314453e-06
vn -4.246830940246582e-07 2.495944499969482e-06 1
vn -9.685754776000977e-08 -2.551823854446411e-06 -1
vn -0.9951847791671753 0.09801556915044785 -6.049871444702148e-06
vn -0.995184600353241 0.09801743179559708 -3.486871719360352e-06
vn -4.023313522338867e-07 1.922249794006348e-06 0.9999998807907104
vn 7.450580596923828e-09 4.172325134277344e-07 -1
vn -0.9951850175857544 -0.0980147123336792 -2.533197402954102e-06
vn -0.9951847195625305 -0.09801844507455826 -7.867813110351562e-06
vn -4.991888999938965e-07 2.931803464889526e-06 -1
vn -0.9569396376609802 -0.2902871966362 -8.553266525268555e-06
vn -0.9569408297538757 -0.2902829051017761 -2.026557922363281e-06
vn 8.23289155960083e-07 -1.9073486328125e-06 0.9999998807907104
vn 7.450580596923828e-07 -1.788139343261719e-07 -1
vn -0.8819224238395691 -0.4713943004608154 -2.264976501464844e-06
vn -0.8819217085838318 -0.4713962078094482 -5.036592483520508e-06
vn -1.903623342514038e-06 2.056360244750977e-06 1
vn 1.825392246246338e-06 -1.799315214157104e-06 -0.9999998807907104
vn -0.7730075120925903 -0.634397029876709 -4.917383193969727e-06
vn -0.7730092406272888 -0.6343947052955627 -7.152557373046875e-07
vn 7.82310962677002e-07 -7.227063179016113e-07 1
vn -2.980232238769531e-07 4.060566425323486e-07 -1.00000011920929
vn -0.6343945264816284 -0.7730093598365784 -1.296401023864746e-06
vn -0.6343957185745239 -0.7730087041854858 8.940696716308594e-07
vn 2.831220626831055e-07 -1.266598701477051e-07 1
vn -4.172325134277344e-07 4.209578037261963e-07 -1.00000011920929
vn -0.4713946878910065 -0.8819222450256348 2.443790435791016e-06
vn -0.4713945984840393 -0.8819222450256348 2.406537532806396e-06
vn -9.5367431640625e-07 1.788139343261719e-07 1
vn 5.140900611877441e-07 -2.235174179077148e-08 -0.9999998807907104
vn -0.2902908027172089 -0.9569384455680847 2.054839569609612e-06
vn -0.2902854382991791 -0.956940233707428 -6.21750223217532e-06
vn -2.007931470870972e-06 5.438923835754395e-07 0.9999998807907104
vn 1.125037670135498e-06 1.117587089538574e-08 -1
vn -0.09801450371742249 -0.9951851367950439 -6.608664989471436e-06
vn -0.09801813215017319 -0.995184600353241 -1.169741153717041e-06
vn 2.015382051467896e-06 4.693865776062012e-07 1
vn 0.0980198085308075 -0.9951844811439514 -1.773238182067871e-06
vn 0.09801753610372543 -0.995184600353241 1.579523086547852e-06
vn 4.954636096954346e-07 1.71363353729248e-07 0.9999997615814209
vn -1.415610313415527e-06 -5.289912223815918e-07 -1
vn 0.2902831137180328 -0.9569407105445862 1.609325408935547e-06
vn 0.2902861535549164 -0.9569398760795593 -3.010034561157227e-06
vn 1.538544893264771e-06 5.513429641723633e-07 1
vn -5.140900611877441e-07 -1.71363353729248e-07 -0.9999999403953552
vn 0.4714023172855377 -0.8819183111190796 -2.384185791015625e-06
vn 0.4713977575302124 -0.8819206953048706 5.21540641784668e-06
vn -1.549720764160156e-06 -1.370906829833984e-06 0.9999998807907104
vn -1.281499862670898e-06 -6.668269634246826e-07 -1
vn 0.634391725063324 -0.7730116248130798 4.559755325317383e-06
vn 0.6343919634819031 -0.7730115056037903 4.351139068603516e-06
vn -1.9073486328125e-06 -1.7508864402771e-06 0.9999998807907104
vn 7.301568984985352e-07 1.341104507446289e-06 -0.9999999403953552
vn 0.7730079889297485 -0.6343963742256165 5.155801773071289e-06
vn 0.7730110287666321 -0.6343926787376404 -1.817941665649414e-06
vn 1.437962055206299e-06 3.233551979064941e-06 1
vn 2.16066837310791e-07 4.507601261138916e-07 -1
vn 0.8819226026535034 -0.4713939130306244 -2.503395080566406e-06
vn 0.8819226026535034 -0.4713943302631378 -2.026557922363281e-06
vn -6.705522537231445e-08 -4.470348358154297e-07 1
vn 6.48200511932373e-07 1.356005668640137e-06 -1
vn 0.9569394588470459 -0.2902876138687134 -5.960464477539062e-07
vn 0.9569380283355713 -0.2902922630310059 6.735324859619141e-06
vn 1.564621925354004e-07 5.289912223815918e-07 1
vn 7.450580596923828e-08 -1.117587089538574e-06 -1
vn 0.9951845407485962 -0.09801915287971497 7.271766662597656e-06
vn 0.995185375213623 -0.09801062941551208 -5.125999450683594e-06

# Mesh '' with 128 faces
usemtl $Material_0
f  1//1 2//1 3//1
f  4//2 5//2 6//2
f  2//3 4//3 3//3
f  4//4 6//4 3//4
f  1//5 3//5 7//5
f  6//6 5//6 8//6
f  3//7 6//7 7//7
f  6//8 8//8 7//8
f  1//9 7//9 9//9
f  8//10 5//10 10//10
f  7//11 8//11 9//11
f  8//12 10//12 9//12
f  1//13 9//13 11//13
f  10//14 5//14 12//14
f  9//15 10//15 11//15
f  10//16 12//16 11//16
f  1//13 11//13 13//13
f  12//17 5//17 14//17
f  11//18 12//18 13//18
f  12//19 14//19 13//19
f  1//20 13//20 15//20
f  14//21 5//21 16//21
f  13//22 14//22 15//22
f  14//23 16//23 15//23
f  1//24 15//24 17//24
f  16//25 5//25 18//25
f  15//26 16//26 17//26
f  16//27 18//27 17//27
f  1//28 17//28 19//28
f  18//29 5//29 20//29
f  17//30 18//30 19//30
f  18//31 20//31 19//31
f  1//32 19//32 21//32
f  20//33 5//33 22//33
f  19//34 20//34 21//34
f  20//35 22//35 21//35
f  1//36 21//36 23//36
f  22//37 5//37 24//37
f  21//38 22//38 23//38
f  22//39 24//39 23//39
f  1//40 23//40 25//40
f  24//41 5//41 26//41
f  23//42 24//42 25//42
f  24//43 26//43 25//43
f  1//44 25//44 27//44
f  26//45 5//45 28//45
f  25//46 26//46 27//46
f  26//47 28//47 27//47
f  1//48 27//48 29//48
f  28//49 5//49 30//49
f  27//50 28//50 29//50
f  28//51 30//51 29//51
f  1//52 29//52 31//52
f  30//53 5//53 32//53
f  29//54 30//54 31//54
f  30//55 32//55 31//55
f  1//56 31//56 33//56
f  32//57 5//57 34//57
f  31//58 32//58 33//58
f  32//59 34//59 33//59
f  1//60 33//60 35//60
f  34//61 5//61 36//61
f  33//62 34//62 35//62
f  34//63 36//63 35//63
f  1//64 35//64 37//64
f  36//65 5//65 38//65
f  35//66 36//66 37//66
f  36//67 38//67 37//67
f  1//13 37//13 39//13
f  38//68 5//68 40//68
f  37//69 38//69 39//69
f  38//70 40//70 39//70
f  1//71 39//71 41//71
f  40//72 5//72 42//72
f  39//73 40//73 41//73
f  40//74 42//74 41//74
f  1//75 41//75 43//75
f  42//76 5//76 44//76
f  41//77 42//77 43//77
f  42//78 44//78 43//78
f  1//79 43//79 45//79
f  44//80 5//80 46//80
f  43//81 44//81 45//81
f  44//82 46//82 45//82
f  1//83 45//83 47//83
f  46//84 5//84 48//84
f  45//85 46//85 47//85
f  46//86 48//86 47//86
f  1//87 47//87 49//87
f  48//88 5//88 50//88
f  47//89 48//89 49//89
f  48//90 50//90 49//90
f  1//91 49//91 51//91
f  50//92 5//92 52//92
f  49//93 50//93 51//93
f  50//94 52//94 51//94
f  1//95 51//95 53//95
f  52//92 5//92 54//92
f  51//96 52//96 53//96
f  52//97 54//97 53//97
f  1//98 53//98 55//98
f  54//99 5//99 56//99
f  53//100 54//100 55//100
f  54//101 56//101 55//101
f  1//102 55//102 57//102
f  56//103 5//103 58//103
f  55//104 56//104 57//104
f  56//105 58//105 57//105
f  1//106 57//106 59//106
f  58//107 5//107 60//107
f  57//108 58//108 59//108
f  58//109 60//109 59//109
f  1//110 59//110 61//110
f  60//111 5//111 62//111
f  59//112 60//112 61//112
f  60//113 62//113 61//113
f  1//114 61//114 63//114
f  62//115 5//115 64//115
f  61//116 62//116 63//116
f  62//117 64//117 63//117
f  1//118 63//118 65//118
f  64//119 5//119 66//119
f  63//120 64//120 65//120
f  64//121 66//121 65//121
f  1//122 65//122 2//122
f  66//123 5//123 4//123
f  65//124 66//124 2//124
f  66//125 4//125 2//125

