# File produced by Open Asset Import Library (http://www.assimp.sf.net)
# (assimp v4.1.3154142419)

mtllib prismatic.mtl

# 74 vertex positions
v  3.203749656677246e-07 3.241002559661865e-07 0.03500009328126907
v  0.02392386645078659 0.00725744292140007 0.03499998897314072
v  0.02204842120409012 0.01178523525595665 0.03500019758939743
v  0.02392382174730301 0.00725744292140007 0.0100000724196434
v  3.352761268615723e-07 4.433095455169678e-07 0.01000002771615982
v  0.0220484659075737 0.01178526505827904 0.01000011712312698
v  0.01932556182146072 0.01586016640067101 0.03500007838010788
v  0.01932565122842789 0.0158601813018322 0.01000002771615982
v  0.01586010307073593 0.01932565495371819 0.03500021249055862
v  0.01586025208234787 0.01932566985487938 0.01000016182661057
v  0.01178526133298874 0.02204842492938042 0.03500012308359146
v  0.01178532093763351 0.02204843983054161 0.01000002771615982
v  0.007257439196109772 0.02392391487956047 0.0350000336766243
v  0.007257498800754547 0.02392394468188286 0.009999953210353851
v  0.002450741827487946 0.02488003298640251 0.0350000336766243
v  0.002450831234455109 0.02488003298640251 0.009999983012676239
v  -0.002450071275234222 0.02487991377711296 0.03500013798475266
v  -0.00245010107755661 0.02488003298640251 0.009999968111515045
v  -0.007256798446178436 0.0239238403737545 0.03500018268823624
v  -0.007256738841533661 0.02392389997839928 0.01000004261732101
v  -0.01178453117609024 0.02204842492938042 0.03500007838010788
v  -0.01178457587957382 0.02204842492938042 0.01000005751848221
v  -0.01585950702428818 0.01932568475604057 0.03500004857778549
v  -0.01585950702428818 0.01932568475604057 0.01000005751848221
v  -0.01932495087385178 0.01586019620299339 0.0350000336766243
v  -0.01932492107152939 0.01586031541228294 0.01000001281499863
v  -0.02204769104719162 0.01178526505827904 0.0349997952580452
v  -0.02204772084951401 0.01178533956408501 0.009999878704547882
v  -0.02392322570085526 0.007257547229528427 0.0350000187754631
v  -0.02392313629388809 0.007257517427206039 0.009999923408031464
v  -0.02487928420305252 0.002450790256261826 0.0350000187754631
v  -0.02487931400537491 0.002450820058584213 0.009999774396419525
v  -0.0248793438076973 -0.002450022846460342 0.03499983996152878
v  -0.02487926930189133 -0.002449993044137955 0.009999923408031464
v  -0.02392319589853287 -0.007256750017404556 0.03499998897314072
v  -0.0239231213927269 -0.007256660610437393 0.009999968111515045
v  -0.0220477506518364 -0.01178449764847755 0.03499995917081833
v  -0.02204766124486923 -0.01178449764847755 0.009999938309192657
v  -0.01932493597269058 -0.01585948839783669 0.03499994426965714
v  -0.01932484656572342 -0.01585941389203072 0.009999863803386688
v  -0.01585955172777176 -0.01932493224740028 0.03499991446733475
v  -0.01585953682661057 -0.0193248875439167 0.009999819099903107
v  -0.01178460568189621 -0.02204767242074013 0.03499989956617355
v  -0.01178454607725143 -0.02204767242074013 0.009999893605709076
v  -0.007256694138050079 -0.02392322197556496 0.03500004857778549
v  -0.007256798446178436 -0.02392314746975899 0.01000001281499863
v  -0.002450175583362579 -0.02487928047776222 0.03500004857778549
v  -0.00245010107755661 -0.02487929537892342 0.009999953210353851
v  0.00245068222284317 -0.02487926557660103 0.03500000387430191
v  0.002450816333293915 -0.02487925067543983 0.009999923408031464
v  0.00725739449262619 -0.02392313256859779 0.03499998897314072
v  0.007257454097270966 -0.02392317727208138 0.009999953210353851
v  0.01178533583879471 -0.02204764261841774 0.03499988466501236
v  0.01178533583879471 -0.02204767242074013 0.0100000724196434
v  0.01586016267538071 -0.01932493224740028 0.03499995917081833
v  0.01586019247770309 -0.01932485774159431 0.009999893605709076
v  0.01932566612958908 -0.01585950329899788 0.03500019758939743
v  0.01932569593191147 -0.01585947349667549 0.01000016182661057
v  0.02204842120409012 -0.01178457215428352 0.03500024229288101
v  0.02204839140176773 -0.01178449764847755 0.01000004261732101
v  0.02392389625310898 -0.007256794720888138 0.03500007838010788
v  0.02392391115427017 -0.007256779819726944 0.01000004261732101
v  0.02487988024950027 -0.002450037747621536 0.03500009328126907
v  0.02488002926111221 -0.002450022846460342 0.009999983012676239
v  0.02487991005182266 0.002450760453939438 0.03500030189752579
v  0.02487995475530624 0.002450790256261826 0.01000004261732101
v  0.01250002253800631 -0.01249994430691004 7.450580596923828e-08
v  -0.01249997783452272 -0.01249994430691004 7.450580596923828e-08
v  0.01250002253800631 0.01250005606561899 7.450580596923828e-08
v  -0.01249997783452272 0.01250005606561899 7.450580596923828e-08
v  0.01250002253800631 -0.01249994430691004 0.4000000953674316
v  -0.01249997783452272 -0.01249994430691004 0.4000000953674316
v  0.01250002253800631 0.01250005606561899 0.4000000953674316
v  -0.01249997783452272 0.01250005606561899 0.4000000953674316

# 0 UV coordinates

# 132 vertex normals
vn 1.657008397160098e-05 -4.38988208770752e-05 1.000000238418579
vn -1.192092895507812e-06 1.236051593878074e-05 -1.000000238418579
vn 0.9238793849945068 0.3826841711997986 2.145767211914062e-06
vn 0.9238796234130859 0.3826836943626404 2.264976501464844e-06
vn -1.811981019272935e-05 2.112984657287598e-05 1.000000238418579
vn 1.707673072814941e-05 -2.186000710935332e-05 -1.000000238418579
vn 0.8314701914787292 0.5555697083473206 2.294778823852539e-06
vn 0.8314700126647949 0.5555698871612549 2.324581146240234e-06
vn 1.01625919342041e-05 -1.33216381072998e-05 1.000000238418579
vn -2.169609069824219e-05 2.525747186155058e-05 -1.000000238418579
vn 0.7071074247360229 0.7071062326431274 2.205371856689453e-06
vn 0.7071068286895752 0.7071071863174438 2.056360244750977e-06
vn -1.883506956801284e-05 1.052021980285645e-05 1.000000238418579
vn 3.415346145629883e-05 -2.048910027951933e-05 -1.000000238418579
vn 0.5555704832077026 0.8314695358276367 1.847743988037109e-06
vn 0.5555710792541504 0.8314692974090576 2.011656761169434e-06
vn -9.477139428781811e-06 5.513429641723633e-06 1.000000238418579
vn 2.145767211914062e-06 -3.360212531333673e-06 -1.000000238418579
vn 0.3826842904090881 0.9238795042037964 1.870095729827881e-06
vn 0.3826839327812195 0.9238796234130859 1.691281795501709e-06
vn -1.132487113864045e-06 3.069639205932617e-06 1.000000238418579
vn -9.179115295410156e-06 4.470371095521841e-08 -1.000000238418579
vn 0.1950900554656982 0.9807853698730469 1.505017280578613e-06
vn 0.1950909495353699 0.9807852506637573 1.549720764160156e-06
vn 1.958013308467343e-05 8.940696716308594e-07 1.00000011920929
vn -9.000301361083984e-06 4.470371095521841e-08 -1.000000357627869
vn 8.344650268554688e-07 1.000000238418579 1.251697426596365e-06
vn 3.576278686523438e-07 1 1.147389184552594e-06
vn 6.198885330377379e-06 -4.470348358154297e-07 1.000000238418579
vn -6.198883056640625e-06 4.619362243829528e-07 -1.000000238418579
vn -0.1950896978378296 0.9807853698730469 7.674098014831543e-07
vn -0.1950895488262177 0.9807856678962708 8.717179298400879e-07
vn -1.239777157024946e-05 -5.960464477539062e-06 1.000000238418579
vn 2.145767211914062e-06 2.8684742119367e-06 -1.000000238418579
vn -0.3826825320720673 0.9238801598548889 3.799796104431152e-07
vn -0.3826821446418762 0.9238801598548889 5.736947059631348e-07
vn -1.370907375530805e-05 -6.794929504394531e-06 1.000000238418579
vn 7.301568984985352e-06 5.528331712412182e-06 -1.000000238418579
vn -0.5555698871612549 0.8314701318740845 5.21540641784668e-08
vn -0.555570125579834 0.8314698934555054 7.450580596923828e-09
vn -2.473592076057685e-06 2.562999725341797e-06 1.000000238418579
vn 2.562999725341797e-06 1.609325863682898e-06 -1.00000011920929
vn -0.7071073651313782 0.7071064710617065 -4.917383193969727e-07
vn -0.7071067690849304 0.70710688829422 -3.725290298461914e-07
vn -2.509357000235468e-05 -2.521276473999023e-05 1.000000238418579
vn 1.615285873413086e-05 1.831353074521758e-05 -1.000000238418579
vn -0.8314692974090576 0.5555711984634399 -8.419156074523926e-07
vn -0.8314699530601501 0.5555699467658997 -1.035630702972412e-06
vn 7.748617463221308e-06 3.635883331298828e-05 1.000000238418579
vn 8.046627044677734e-06 3.099442437815014e-06 -1.000000238418579
vn -0.9238794445991516 0.3826842904090881 -1.341104507446289e-06
vn -0.9238789677619934 0.3826853334903717 -1.214444637298584e-06
vn -4.872682438872289e-06 -5.066394805908203e-06 1.000000238418579
vn 7.450580596923828e-06 1.363456476610736e-06 -1.000000238418579
vn -0.9807853698730469 0.1950907707214355 -1.609325408935547e-06
vn -0.9807854890823364 0.1950902342796326 -1.698732376098633e-06
vn -6.735333499818807e-06 -2.408027648925781e-05 1.000000238418579
vn 5.21540641784668e-06 -2.156943446607329e-05 -1.00000011920929
vn -1.000000238418579 -1.490116119384766e-07 -2.026557922363281e-06
vn -1 2.384185791015625e-07 -1.914799213409424e-06
vn -1.162290027423296e-05 2.577900886535645e-05 1.000000238418579
vn 3.36766242980957e-06 -2.674758889043005e-06 -1.000000238418579
vn -0.9807856678962708 -0.1950896084308624 -2.112239599227905e-06
vn -0.9807856678962708 -0.1950895190238953 -2.052634954452515e-06
vn 5.960146154393442e-08 -1.284480094909668e-05 1.000000238418579
vn -0.9238796234130859 -0.3826833367347717 -2.183020114898682e-06
vn -0.9238795638084412 -0.3826834857463837 -2.138316631317139e-06
vn -6.586314611922717e-06 -3.576278686523438e-07 1.000000238418579
vn -4.529953002929688e-06 1.859665280790068e-05 -1.000000238418579
vn -0.831470251083374 -0.5555696487426758 -2.279877662658691e-06
vn -0.8314700126647949 -0.5555700063705444 -2.443790435791016e-06
vn 3.814694991888246e-06 -1.302361488342285e-05 1.000000238418579
vn 4.082918167114258e-06 8.076431186054833e-06 -1.000000238418579
vn -0.7071071267127991 -0.7071065902709961 -2.399086952209473e-06
vn -0.7071073651313782 -0.7071064710617065 -2.294778823852539e-06
vn -4.48525224783225e-06 -6.288290023803711e-06 1.000000238418579
vn 9.804964065551758e-06 3.345311597513501e-06 -1.00000011920929
vn -0.5555707812309265 -0.8314694166183472 -2.086162567138672e-06
vn -0.5555713176727295 -0.8314693570137024 -2.086162567138672e-06
vn -3.273785841884091e-05 8.821487426757812e-06 1.00000011920929
vn 4.351139068603516e-05 -1.465529567212798e-05 -1.000000238418579
vn -0.3826839327812195 -0.9238793849945068 -1.996755599975586e-06
vn -0.3826841115951538 -0.9238794445991516 -1.937150955200195e-06
vn 2.592802957224194e-06 -1.788139343261719e-06 1.000000238418579
vn -1.478195190429688e-05 3.024936177098425e-06 -1.000000238418579
vn -0.1950905621051788 -0.9807854890823364 -1.609325408935547e-06
vn -0.1950902342796326 -0.9807854890823364 -1.788139343261719e-06
vn 1.311302639805945e-06 -1.817941665649414e-06 1.000000357627869
vn -8.940696716308594e-06 2.488494601493585e-06 -1.000000238418579
vn 1.043092652253108e-07 -1.00000011920929 -1.370906829833984e-06
vn -4.023303858957661e-07 -1.00000011920929 -1.311302185058594e-06
vn 1.758337589308212e-06 -1.698732376098633e-06 1.000000238418579
vn 5.483627319335938e-06 3.829599336313549e-06 -1.00000011920929
vn 0.1950893402099609 -0.980785608291626 -8.940696716308594e-07
vn 0.1950892060995102 -0.9807857275009155 -8.940696716308594e-07
vn 2.124906313838437e-05 4.142522811889648e-06 1.000000238418579
vn 0.3826832175254822 -0.923879861831665 -4.172325134277344e-07
vn 0.3826836049556732 -0.9238797426223755 -4.172325134277344e-07
vn -1.394749506289372e-05 -1.466274261474609e-05 1.000000238418579
vn -1.162290573120117e-05 -4.49270100943977e-06 -1.000000357627869
vn 0.5555688142776489 -0.8314709067344666 -5.960464477539062e-08
vn 0.5555700063705444 -0.8314699530601501 -3.576278686523438e-07
vn -3.130735785816796e-05 -2.896785736083984e-05 1.000000238418579
vn 3.021955490112305e-05 2.984703314723447e-05 -1.000000238418579
vn 0.7071077823638916 -0.7071059346199036 1.192092895507812e-07
vn 0.7071062922477722 -0.7071075439453125 6.556510925292969e-07
vn -9.536715879221447e-07 8.016824722290039e-06 1.000000238418579
vn -1.490116119384766e-07 -7.23451512385509e-06 -1.000000238418579
vn 0.8314695358276367 -0.5555706024169922 1.013278961181641e-06
vn 0.8314700126647949 -0.5555700659751892 8.344650268554688e-07
vn 7.361183634202462e-06 2.35140323638916e-05 1.000000238418579
vn 0 -6.727875643264269e-06 -1.000000238418579
vn 0.9238792657852173 -0.3826843500137329 1.251697540283203e-06
vn 0.9238793849945068 -0.3826840817928314 1.132488250732422e-06
vn 2.294782234457671e-06 7.480382919311523e-06 1.00000011920929
vn 5.960464477539062e-08 -6.392599061655346e-06 -1.000000357627869
vn 0.9807854890823364 -0.1950912177562714 1.668930053710938e-06
vn 0.9807851910591125 -0.195091724395752 1.668930053710938e-06
vn -2.682222657313105e-06 -4.38690185546875e-05 1.000000238418579
vn 9.5367431640625e-07 2.786517597996863e-06 -1.000000238418579
vn 1.000000238418579 -5.960527005299809e-08 1.966953277587891e-06
vn 1.00000011920929 8.940628504205961e-08 1.9073486328125e-06
vn -1.198052177642239e-05 5.051493644714355e-05 1
vn 7.152557373046875e-07 6.042422228347277e-06 -1.000000238418579
vn 0.9807857275009155 0.1950890570878983 2.145767211914062e-06
vn 0.9807854890823364 0.1950896978378296 1.966953277587891e-06
vn 0 0 -1
vn 0 -1 0
vn 0 1 0
vn 0 0 1
vn -1 0 0
vn 1 0 0

# Mesh '' with 128 faces
usemtl $Material_0
f  1//1 2//1 3//1
f  4//2 5//2 6//2
f  2//3 4//3 3//3
f  4//4 6//4 3//4
f  1//5 3//5 7//5
f  6//6 5//6 8//6
f  3//7 6//7 7//7
f  6//8 8//8 7//8
f  1//9 7//9 9//9
f  8//10 5//10 10//10
f  7//11 8//11 9//11
f  8//12 10//12 9//12
f  1//13 9//13 11//13
f  10//14 5//14 12//14
f  9//15 10//15 11//15
f  10//16 12//16 11//16
f  1//17 11//17 13//17
f  12//18 5//18 14//18
f  11//19 12//19 13//19
f  12//20 14//20 13//20
f  1//21 13//21 15//21
f  14//22 5//22 16//22
f  13//23 14//23 15//23
f  14//24 16//24 15//24
f  1//25 15//25 17//25
f  16//26 5//26 18//26
f  15//27 16//27 17//27
f  16//28 18//28 17//28
f  1//29 17//29 19//29
f  18//30 5//30 20//30
f  17//31 18//31 19//31
f  18//32 20//32 19//32
f  1//33 19//33 21//33
f  20//34 5//34 22//34
f  19//35 20//35 21//35
f  20//36 22//36 21//36
f  1//37 21//37 23//37
f  22//38 5//38 24//38
f  21//39 22//39 23//39
f  22//40 24//40 23//40
f  1//41 23//41 25//41
f  24//42 5//42 26//42
f  23//43 24//43 25//43
f  24//44 26//44 25//44
f  1//45 25//45 27//45
f  26//46 5//46 28//46
f  25//47 26//47 27//47
f  26//48 28//48 27//48
f  1//49 27//49 29//49
f  28//50 5//50 30//50
f  27//51 28//51 29//51
f  28//52 30//52 29//52
f  1//53 29//53 31//53
f  30//54 5//54 32//54
f  29//55 30//55 31//55
f  30//56 32//56 31//56
f  1//57 31//57 33//57
f  32//58 5//58 34//58
f  31//59 32//59 33//59
f  32//60 34//60 33//60
f  1//61 33//61 35//61
f  34//62 5//62 36//62
f  33//63 34//63 35//63
f  34//64 36//64 35//64
f  1//65 35//65 37//65
f  36//2 5//2 38//2
f  35//66 36//66 37//66
f  36//67 38//67 37//67
f  1//68 37//68 39//68
f  38//69 5//69 40//69
f  37//70 38//70 39//70
f  38//71 40//71 39//71
f  1//72 39//72 41//72
f  40//73 5//73 42//73
f  39//74 40//74 41//74
f  40//75 42//75 41//75
f  1//76 41//76 43//76
f  42//77 5//77 44//77
f  41//78 42//78 43//78
f  42//79 44//79 43//79
f  1//80 43//80 45//80
f  44//81 5//81 46//81
f  43//82 44//82 45//82
f  44//83 46//83 45//83
f  1//84 45//84 47//84
f  46//85 5//85 48//85
f  45//86 46//86 47//86
f  46//87 48//87 47//87
f  1//88 47//88 49//88
f  48//89 5//89 50//89
f  47//90 48//90 49//90
f  48//91 50//91 49//91
f  1//92 49//92 51//92
f  50//93 5//93 52//93
f  49//94 50//94 51//94
f  50//95 52//95 51//95
f  1//96 51//96 53//96
f  52//34 5//34 54//34
f  51//97 52//97 53//97
f  52//98 54//98 53//98
f  1//99 53//99 55//99
f  54//100 5//100 56//100
f  53//101 54//101 55//101
f  54//102 56//102 55//102
f  1//103 55//103 57//103
f  56//104 5//104 58//104
f  55//105 56//105 57//105
f  56//106 58//106 57//106
f  1//107 57//107 59//107
f  58//108 5//108 60//108
f  57//109 58//109 59//109
f  58//110 60//110 59//110
f  1//111 59//111 61//111
f  60//112 5//112 62//112
f  59//113 60//113 61//113
f  60//114 62//114 61//114
f  1//115 61//115 63//115
f  62//116 5//116 64//116
f  61//117 62//117 63//117
f  62//118 64//118 63//118
f  1//119 63//119 65//119
f  64//120 5//120 66//120
f  63//121 64//121 65//121
f  64//122 66//122 65//122
f  1//123 65//123 2//123
f  66//124 5//124 4//124
f  65//125 66//125 2//125
f  66//126 4//126 2//126

# Mesh '' with 12 faces
usemtl $Material_1
f  67//127 68//127 69//127
f  69//127 68//127 70//127
f  68//128 67//128 71//128
f  68//128 71//128 72//128
f  69//129 70//129 73//129
f  73//129 70//129 74//129
f  73//130 74//130 71//130
f  71//130 74//130 72//130
f  70//131 68//131 74//131
f  74//131 68//131 72//131
f  67//132 69//132 73//132
f  67//132 73//132 71//132

